PathFileType	4	(X/Y/Z)	C:/Users/opensim2020/Desktop/walking_exp_matlab/subject03_walking06_straight_04.trc	
DataRate	CameraRate	NumFrames	NumMarkers	Units	OrigDataRate	OrigDataStartFrame	OrigNumFrames	
100.00	100.00	4	44	mm	100.00	2868	278	
Frame#	Time	LFHD			RFHD			LBHD			RBHD			C7			T10			CLAV			STRN			RBAK			LSHO			LUPA			LELB			LFRM			LWRA			LWRB			LFIN			RSHO			RUPA			RELB			RFRM			RWRA			RWRB			RFIN			LASI			RASI			LPSI			RPSI			LTHI			LKNE			LTIB			LANK			LHEE			LTOE			RTHI			RKNE			RTIB			RANK			RHEE			RTOE			*39			*40			*41			*42			*43			
		X1	Y1	Z1	X2	Y2	Z2	X3	Y3	Z3	X4	Y4	Z4	X5	Y5	Z5	X6	Y6	Z6	X7	Y7	Z7	X8	Y8	Z8	X9	Y9	Z9	X10	Y10	Z10	X11	Y11	Z11	X12	Y12	Z12	X13	Y13	Z13	X14	Y14	Z14	X15	Y15	Z15	X16	Y16	Z16	X17	Y17	Z17	X18	Y18	Z18	X19	Y19	Z19	X20	Y20	Z20	X21	Y21	Z21	X22	Y22	Z22	X23	Y23	Z23	X24	Y24	Z24	X25	Y25	Z25	X26	Y26	Z26	X27	Y27	Z27	X28	Y28	Z28	X29	Y29	Z29	X30	Y30	Z30	X31	Y31	Z31	X32	Y32	Z32	X33	Y33	Z33	X34	Y34	Z34	X35	Y35	Z35	X36	Y36	Z36	X37	Y37	Z37	X38	Y38	Z38	X39	Y39	Z39	X40	Y40	Z40	X41	Y41	Z41	X42	Y42	Z42	X43	Y43	Z43	X44	Y44	Z44	

140	1.390	-966.62518	-6.06765	1608.02002	-1099.40588	0.20293	1613.91687	-965.02917	126.29765	1579.33984	-1096.23999	127.68806	1584.47253	-1026.01538	176.67030	1418.25659	-1024.67871	210.42960	1101.54407	-1026.68323	57.55552	1338.97253	-1018.22937	12.25818	1176.29736	-1119.19531	233.12303	1237.88733	-870.89972	103.06265	1377.12842	-800.75854	93.75524	1181.48938	-791.97113	66.86414	1060.32141	-801.42712	8.65646	944.92957	-841.97400	-42.84352	841.64557	-790.65552	-20.70661	834.59113	-808.57318	-62.23407	763.09521	-1186.51428	104.83555	1360.29272	-1258.96265	99.65358	1137.61987	-1272.87537	81.52021	1026.07227	-1276.87952	63.44368	890.38550	-1242.36304	34.99714	794.01617	-1288.52344	63.21138	790.58624	-1278.95508	42.66335	718.57086	-907.73242	43.55851	935.55389	-1146.07324	39.03309	945.47583	-960.16791	204.75737	952.98383	-1108.31458	201.02802	971.71863	-855.25946	54.45261	633.13165	-871.10596	13.80116	458.19977	-877.39124	161.77338	328.93570	-920.67957	307.31210	183.64578	-963.52350	359.26474	182.93784	-925.78925	227.40758	60.32488	-1183.60535	84.59003	649.78802	-1145.53430	62.85912	470.01004	-1143.13037	102.97679	282.75577	-1088.04651	118.24889	68.22186	-1035.08765	159.12045	36.39470	-1076.07080	-25.48428	31.48855	-1017.31500	71.10094	1677.25488												 
141	1.400	-967.02429	-14.82696	1608.02051	-1099.86121	-8.94406	1613.87317	-965.75641	117.55428	1579.52002	-1096.87793	118.65424	1584.61121	-1026.58984	168.05330	1418.43030	-1025.27747	201.93768	1101.68542	-1027.21484	49.09970	1338.95276	-1018.76880	3.82338	1176.39819	-1119.64697	224.51015	1238.13428	-871.41071	95.04693	1377.43896	-801.92719	86.69342	1181.32410	-793.58508	60.83608	1060.00769	-802.36371	4.51967	943.42004	-841.99603	-44.32759	838.82721	-790.74249	-22.50680	832.51740	-808.09601	-62.54645	760.04285	-1187.11694	96.21274	1360.60999	-1260.03101	88.01430	1138.45325	-1274.02490	67.41947	1027.34265	-1278.67615	46.94072	892.03339	-1244.35779	17.16533	796.00500	-1290.84229	44.89365	792.49481	-1282.01147	22.41605	721.08032	-908.80988	34.58021	936.46185	-1147.18945	30.67868	945.55035	-960.81610	196.23232	953.38379	-1109.04529	192.55917	971.76465	-856.74402	40.26160	634.20392	-873.45044	-3.83142	460.04910	-878.99811	140.69220	326.62527	-921.63684	283.46652	178.15099	-963.73999	336.10657	175.50763	-928.77222	198.27846	58.75100	-1183.35266	77.09163	649.01642	-1145.78210	58.44239	469.64969	-1143.24146	100.38062	282.80258	-1087.92688	117.95698	68.41341	-1035.01672	159.05676	36.67755	-1076.03528	-25.61011	31.44798	-1017.77765	62.07744	1677.39221												 
142	1.410	-967.41913	-23.60757	1607.92139	-1100.28003	-17.91991	1613.80334	-966.33594	108.85615	1579.71338	-1097.48157	109.68851	1584.80847	-1027.47913	159.58333	1418.64233	-1025.88135	193.64819	1101.85474	-1027.63000	40.39742	1339.25366	-1019.34381	-4.52696	1176.44519	-1120.27478	215.84560	1238.43555	-871.99390	86.89119	1377.75110	-803.05157	79.76989	1181.22449	-794.89801	54.70262	1059.73938	-803.11578	0.63031	942.01343	-841.98840	-46.18200	836.09735	-790.72406	-24.05846	830.62714	-807.46045	-62.53133	757.14783	-1187.67017	87.52473	1361.03906	-1261.13708	76.56336	1139.30005	-1275.28308	53.55625	1028.73242	-1280.45056	30.61852	893.90631	-1246.40417	-0.72438	798.36383	-1293.07996	26.58965	794.57684	-1284.98486	2.23464	723.84204	-909.96521	25.76255	937.17493	-1147.96460	22.45666	945.51947	-961.34741	187.53792	953.65332	-1109.70959	184.20116	971.73053	-858.23523	26.32749	635.40930	-876.08289	-20.83542	462.00748	-880.59631	119.73744	324.18341	-922.66681	258.84360	171.83820	-964.22687	312.10834	167.13268	-931.76343	168.46262	56.65162	-1184.88464	71.17546	648.77667	-1145.91333	54.11496	469.27698	-1143.27087	97.84035	282.77124	-1087.78906	117.71687	68.64266	-1034.93774	159.08992	36.85852	-1076.02612	-25.70969	31.41997	-1018.17328	53.01817	1677.48792												 
143	1.420	-967.74567	-32.37603	1607.88306	-1100.57471	-26.95459	1613.72754	-966.89294	100.11519	1579.91577	-1098.10596	100.75829	1585.03247	-1028.19690	151.00079	1418.68030	-1026.46301	185.20235	1101.99158	-1028.09668	31.88137	1339.31067	-1019.89569	-12.87358	1176.46521	-1121.01807	207.15779	1238.75330	-872.53351	78.64396	1378.04785	-804.02417	72.81809	1181.16089	-796.12286	48.96080	1059.47974	-803.70807	-3.04732	940.69067	-841.87067	-47.84055	833.44659	-790.57935	-25.46004	828.92395	-806.55164	-62.30093	754.40491	-1188.12451	78.80814	1361.40076	-1262.24182	65.36553	1140.20654	-1276.63538	39.95102	1030.16418	-1282.20959	14.43968	895.84760	-1248.47693	-18.66157	800.80457	-1295.18225	8.42795	796.76086	-1287.75891	-17.86275	726.85028	-910.99646	17.00378	937.69733	-1148.45630	14.69132	945.61438	-961.74371	178.98889	953.89709	-1110.32800	175.87439	971.63977	-859.74982	12.65876	636.68060	-878.60724	-37.52570	464.14316	-882.43365	98.86907	321.53534	-923.97937	233.58026	164.79755	-964.97070	287.15674	157.93767	-934.28864	137.99133	54.74297	-1185.21216	64.77685	648.50909	-1146.04346	49.94378	468.91653	-1143.26453	95.51974	282.84720	-1087.62878	117.50122	68.89641	-1034.64258	158.98993	37.41151	-1076.04150	-25.80304	31.35613	-1018.47620	43.95337	1677.57068												 
